<?xml version="1.0" encoding="iso-8859-1"?>
<!-- Uploaded to: SVG Repo, www.svgrepo.com, Generator: SVG Repo Mixer Tools -->
<svg height="800px" width="800px" version="1.1" id="Layer_1" xmlns="http://www.w3.org/2000/svg" xmlns:xlink="http://www.w3.org/1999/xlink" 
	 viewBox="0 0 511.998 511.998" xml:space="preserve">
<path style="fill:#EFC27B;" d="M508.046,297.327c-4.537-6.755-112.716-165.449-252.042-165.449c-0.002,0-0.003,0-0.005,0
	C116.649,131.883,8.486,290.572,3.951,297.33c-5.267,7.846-5.267,18.1,0,25.946c4.535,6.757,112.699,165.446,252.047,165.45
	c0.002,0,0.003,0,0.005,0c139.328,0,247.505-158.694,252.042-165.449C513.316,315.43,513.316,305.174,508.046,297.327z"/>
<path style="fill:#DEDEE0;" d="M256.003,178.423c-0.002,0-0.003,0-0.005,0c-94.075,0.003-176.611,96.285-203.891,131.857
	c27.33,35.545,110.08,131.896,203.891,131.901c0.002,0,0.003,0,0.005,0c94.061,0,176.603-96.285,203.885-131.857
	C432.557,274.777,349.797,178.423,256.003,178.423z"/>
<path style="fill:#00E7F0;" d="M345.799,285.633c-7.748,5.751-17.346,9.154-27.735,9.154c-25.716,0-46.563-20.812-46.563-46.545
	c0-10.387,3.399-19.973,9.143-27.712c-7.852-2.149-16.111-3.319-24.643-3.319c-0.002,0-0.003,0-0.005,0
	c-51.431,0.003-93.12,41.629-93.12,93.091s41.689,93.088,93.12,93.091c0.002,0,0.003,0,0.005,0
	c51.402,0,93.123-41.627,93.123-93.091C349.125,301.757,347.952,293.49,345.799,285.633z"/>
<path style="fill:#ACABB1;" d="M506.55,155.702c-4.54-5.405-112.758-132.43-250.546-132.43c-0.002,0-0.003,0-0.005,0
	C118.189,23.275,9.984,150.296,5.445,155.702c-8.256,9.84-6.976,24.494,2.852,32.762c9.827,8.266,24.5,7.005,32.784-2.816
	c0.976-1.157,99.011-115.827,214.917-115.83c0.002,0,0.003,0,0.005,0c115.887,0,213.938,114.672,214.899,115.813
	c4.603,5.485,11.196,8.308,17.836,8.308c5.28,0,10.591-1.787,14.952-5.449C513.533,180.226,514.813,165.547,506.55,155.702z"/>
<path style="fill:#ECB45C;" d="M52.108,310.28c27.28-35.572,109.815-131.854,203.891-131.857v-46.545
	C116.649,131.883,8.486,290.572,3.951,297.33c-5.267,7.846-5.267,18.1,0,25.946c4.535,6.757,112.699,165.446,252.047,165.45v-46.545
	C162.188,442.178,79.438,345.826,52.108,310.28z"/>
<path style="fill:#D6D5D8;" d="M52.108,310.28c27.33,35.545,110.08,131.896,203.891,131.901v-38.788
	c-51.431-0.003-93.12-41.629-93.12-93.091s41.689-93.088,93.12-93.091v-38.788C161.923,178.427,79.387,274.709,52.108,310.28z"/>
<path style="fill:#898890;" d="M5.445,155.702c-8.256,9.84-6.976,24.494,2.852,32.762c9.827,8.266,24.5,7.005,32.784-2.816
	c0.976-1.157,99.011-115.827,214.917-115.83V23.272C118.189,23.275,9.984,150.296,5.445,155.702z"/>
<path style="fill:#00D7DF;" d="M162.877,310.302c0,51.462,41.689,93.088,93.12,93.091V217.211
	C204.566,217.214,162.877,258.84,162.877,310.302z"/>
</svg>