<?xml version="1.0" encoding="iso-8859-1"?>
<!-- Uploaded to: SVG Repo, www.svgrepo.com, Generator: SVG Repo Mixer Tools -->
<svg height="800px" width="800px" version="1.1" id="Layer_1" xmlns="http://www.w3.org/2000/svg" xmlns:xlink="http://www.w3.org/1999/xlink" 
	 viewBox="0 0 512.001 512.001" xml:space="preserve">
<path style="fill:#00E7F0;" d="M240.004,311.169h-76.696H85.517c-12.798,0-23.173,10.375-23.173,23.173s10.375,23.173,23.173,23.173
	h51.802h25.989h46.644h30.051c12.798,0,23.173-10.375,23.173-23.173S252.803,311.169,240.004,311.169z"/>
<path style="fill:#ACABB1;" d="M441.318,72.329l-16.385-16.385l5.463-5.463c9.05-9.05,9.05-23.721,0-32.771
	c-9.048-9.05-23.721-9.05-32.771,0l-5.463,5.463L375.776,6.787c-9.048-9.05-23.72-9.05-32.771,0L190.07,159.719
	c-4.346,4.346-6.788,10.241-6.788,16.386c0,6.145,2.441,12.039,6.788,16.386l32.773,32.773l32.771,32.771
	c4.525,4.525,10.456,6.787,16.385,6.787c5.931,0,11.861-2.262,16.385-6.787l91.392-91.392l33.173-33.173l28.368-28.37
	C450.367,96.051,450.367,81.379,441.318,72.329z"/>
<path style="fill:#D6D5D8;" d="M449.657,241.649c0-39.641-12.904-77.292-36.709-108.179l-33.173,33.173
	c15.277,21.852,23.534,47.787,23.534,75.006c0,72.406-58.907,131.313-131.313,131.313c-22.127,0-43.298-5.395-62.045-15.447h-72.632
	c28.778,33.545,68.159,54.739,111.577,60.307v47.833h46.346v-47.867C382.259,406.365,449.657,331.733,449.657,241.649z"/>
<g>
	<path style="fill:#898890;" d="M397.625,17.711l-5.463,5.463L375.776,6.787c-9.048-9.05-23.72-9.05-32.771,0L190.07,159.719
		c-4.346,4.346-6.788,10.241-6.788,16.386c0,6.145,2.441,12.039,6.788,16.386l32.773,32.773L430.396,17.711
		C421.346,8.661,406.673,8.661,397.625,17.711z"/>
	<path style="fill:#898890;" d="M133.032,465.655c-12.798,0-23.173,10.375-23.173,23.173c0,12.798,10.375,23.173,23.173,23.173
		h139.037h139.039c12.798,0,23.173-10.375,23.173-23.173c0-12.798-10.375-23.173-23.173-23.173H295.242h-46.346H133.032z"/>
</g>
<path style="fill:#00D7DF;" d="M85.517,311.169c-12.798,0-23.173,10.375-23.173,23.173s10.375,23.173,23.173,23.173h51.802h25.989
	v-46.346H85.517z"/>
</svg>