<?xml version="1.0" encoding="iso-8859-1"?>
<!-- Uploaded to: SVG Repo, www.svgrepo.com, Generator: SVG Repo Mixer Tools -->
<svg version="1.1" id="Layer_1" xmlns="http://www.w3.org/2000/svg" xmlns:xlink="http://www.w3.org/1999/xlink" 
	 viewBox="0 0 512 512" xml:space="preserve">
<g>
	<rect x="256" y="46.545" style="fill:#ACABB1;" width="93.091" height="46.545"/>
	<path style="fill:#ACABB1;" d="M256,186.18h80.569c7.947-13.703,12.522-29.595,12.522-46.544v-0.002H256V186.18z"/>
	<rect x="256" y="418.909" style="fill:#ACABB1;" width="93.091" height="46.545"/>
	<path style="fill:#ACABB1;" d="M256,372.365h93.091v-0.002c0-16.949-4.575-32.841-12.522-46.544H256V372.365z"/>
</g>
<path style="fill:#A4E276;" d="M256,279.273c34.382,0,64.447,18.75,80.569,46.547c7.947,13.703,12.522,29.595,12.522,46.544v0.002
	v46.547v46.545v23.27c0,12.853,10.42,23.273,23.273,23.273s23.273-10.42,23.273-23.273v-46.542v-69.821
	c0-48.517-24.877-91.327-62.542-116.364c-22.108-14.696-48.617-23.273-77.095-23.273V279.273z"/>
<path style="fill:#C2FB3B;" d="M372.364,0c-12.853,0-23.273,10.42-23.273,23.273v23.274v46.545v46.542v0.002
	c0,16.949-4.575,32.841-12.522,46.544c-16.122,27.797-46.187,46.547-80.569,46.547c28.478,0,54.987,8.577,77.095,23.273
	c37.665-25.037,62.542-67.846,62.542-116.364V69.82V23.273C395.636,10.42,385.216,0,372.364,0z"/>
<g>
	<rect x="162.909" y="46.545" style="fill:#898890;" width="93.091" height="46.545"/>
	<path style="fill:#898890;" d="M162.909,139.636c0,16.949,4.575,32.841,12.522,46.544H256v-46.545L162.909,139.636L162.909,139.636
		z"/>
	<rect x="162.909" y="418.909" style="fill:#898890;" width="93.091" height="46.545"/>
	<path style="fill:#898890;" d="M256,325.82h-80.569c-7.947,13.703-12.522,29.595-12.522,46.544v0.002H256V325.82z"/>
</g>
<path style="fill:#64C37D;" d="M175.431,186.18c-7.947-13.703-12.522-29.595-12.522-46.544v-0.002V93.092V46.547V23.273
	C162.909,10.42,152.489,0,139.636,0c-12.853,0-23.273,10.42-23.273,23.273V69.82v69.817c0,48.517,24.877,91.327,62.542,116.364
	c22.108,14.696,48.617,23.273,77.095,23.273v-46.545C221.618,232.727,191.553,213.977,175.431,186.18z"/>
<path style="fill:#9CDD05;" d="M116.364,372.364v69.821v46.542c0,12.853,10.42,23.273,23.273,23.273
	c12.853,0,23.273-10.42,23.273-23.273v-23.27v-46.545v-46.547v-0.002c0-16.949,4.575-32.841,12.522-46.544
	c16.122-27.797,46.187-46.547,80.569-46.547c-28.48,0-54.987-8.577-77.095-23.273C141.241,281.037,116.364,323.846,116.364,372.364z
	"/>
</svg>