<?xml version="1.0" encoding="iso-8859-1"?>
<!-- Uploaded to: SVG Repo, www.svgrepo.com, Generator: SVG Repo Mixer Tools -->
<svg height="800px" width="800px" version="1.1" id="Layer_1" xmlns="http://www.w3.org/2000/svg" xmlns:xlink="http://www.w3.org/1999/xlink" 
	 viewBox="0 0 512.001 512.001" xml:space="preserve">
<path style="fill:#DEDEE0;" d="M360.751,0c-38.107,0-75.756,14.348-104.746,39.219c-0.002-0.002-0.003-0.002-0.005-0.003
	C227.007,14.345,189.358,0,151.253,0C66.47,0,0.056,66.414,0.056,151.197c0,113.135,74.328,249.149,193.981,354.963
	c4.34,3.837,9.847,5.84,15.421,5.84c3.235,0,6.493-0.675,9.556-2.054c8.347-3.761,13.714-12.066,13.714-21.219V333.576
	c0-12.833,10.44-23.273,23.273-23.273c12.833,0,23.273,10.44,23.273,23.273v155.152c0,9.152,5.367,17.458,13.712,21.219
	c8.347,3.761,18.122,2.279,24.979-3.786c58.639-51.859,108.307-114.91,143.633-182.334c32.467-61.964,50.347-123.273,50.347-172.629
	C511.944,66.414,445.532,0,360.751,0z"/>
<path style="fill:#D6D5D8;" d="M151.253,0C66.47,0,0.056,66.414,0.056,151.197c0,113.135,74.328,249.149,193.981,354.963
	c4.34,3.837,9.847,5.84,15.421,5.84c3.235,0,6.493-0.675,9.556-2.054c8.347-3.761,13.714-12.066,13.714-21.219V333.576
	c0-12.833,10.44-23.273,23.273-23.273V39.216C227.007,14.345,189.358,0,151.253,0z"/>
</svg>