<?xml version="1.0" encoding="iso-8859-1"?>
<!-- Uploaded to: SVG Repo, www.svgrepo.com, Generator: SVG Repo Mixer Tools -->
<svg height="800px" width="800px" version="1.1" id="Layer_1" xmlns="http://www.w3.org/2000/svg" xmlns:xlink="http://www.w3.org/1999/xlink" 
	 viewBox="0 0 512 512" xml:space="preserve">
<path style="fill:#ACABB1;" d="M442.182,232.727h-23.273v46.545h-165.8H93.091v-46.545H69.818H46.545v69.818v73.821
	c7.284-2.583,15.115-4.003,23.273-4.003s15.988,1.42,23.273,4.003v-50.548H253.11h165.8v50.548
	c7.284-2.583,15.115-4.003,23.273-4.003c8.158,0,15.988,1.42,23.273,4.003v-73.821v-69.818H442.182z"/>
<polygon style="fill:#AAFFF5;" points="253.11,93.091 186.182,93.091 186.182,116.364 186.182,139.636 186.182,186.182 
	253.11,186.182 325.818,186.182 325.818,139.636 325.818,116.364 325.818,93.091 "/>
<path style="fill:#ACABB1;" d="M349.091,0H253.11h-90.2c-12.853,0-23.273,10.42-23.273,23.273v69.818v23.273v23.273v46.545v23.273
	c0,12.853,10.42,23.273,23.273,23.273h90.2h95.981c12.853,0,23.273-10.42,23.273-23.273v-23.273v-46.545v-23.273V93.091V23.273
	C372.364,10.42,361.944,0,349.091,0z M325.818,93.091v23.273v23.273v46.545H253.11h-66.928v-46.545v-23.273V93.091V46.545h66.928
	h72.709V93.091z"/>
<path style="fill:#AAFFF5;" d="M372.364,139.636v46.545v23.273c0,12.853-10.42,23.273-23.273,23.273h69.818h23.273h23.273h23.273
	c12.853,0,23.273-10.418,23.273-23.273v-93.091c0-12.854-10.42-23.273-23.273-23.273H372.364v23.273V139.636z"/>
<path style="fill:#FFFFFF;" d="M418.909,442.182c0,12.833,10.44,23.273,23.273,23.273c12.833,0,23.273-10.44,23.273-23.273
	c0-12.833-10.44-23.273-23.273-23.273C429.349,418.909,418.909,429.349,418.909,442.182z"/>
<path style="fill:#57565C;" d="M418.909,376.367c-27.088,9.607-46.545,35.475-46.545,65.815c0,38.498,31.32,69.818,69.818,69.818
	S512,480.68,512,442.182c0-30.34-19.458-56.208-46.545-65.815c-7.284-2.583-15.115-4.003-23.273-4.003
	C434.024,372.364,426.193,373.783,418.909,376.367z"/>
<path style="fill:#D6D5D8;" d="M465.455,442.182c0,12.833-10.44,23.273-23.273,23.273c-12.833,0-23.273-10.44-23.273-23.273
	c0-12.833,10.44-23.273,23.273-23.273C455.014,418.909,465.455,429.349,465.455,442.182z"/>
<g>
	<polygon style="fill:#00EED1;" points="186.182,93.091 186.182,116.364 186.182,139.636 186.182,186.182 253.11,186.182 
		253.11,93.091 	"/>
	<path style="fill:#00EED1;" d="M139.636,209.455v-23.273v-46.545v-23.273V93.091H23.273C10.42,93.091,0,103.509,0,116.364v93.091
		c0,12.854,10.42,23.273,23.273,23.273h23.273h23.273h23.273h69.818C150.056,232.727,139.636,222.307,139.636,209.455z"/>
</g>
<g>
	<path style="fill:#898890;" d="M93.091,279.273v-46.545H69.818H46.545v69.818v73.821c7.284-2.583,15.115-4.003,23.273-4.003
		s15.988,1.42,23.273,4.003v-50.548H253.11v-46.545H93.091z"/>
	<path style="fill:#898890;" d="M139.636,23.273v69.818v23.273v23.273v46.545v23.273c0,12.853,10.42,23.273,23.273,23.273h90.2
		v-46.545h-66.928v-46.545v-23.273V93.091V46.545h66.928V0h-90.2C150.056,0,139.636,10.42,139.636,23.273z"/>
</g>
<path style="fill:#D6D5D8;" d="M69.818,465.455c12.833,0,23.273-10.44,23.273-23.273c0-12.833-10.44-23.273-23.273-23.273
	s-23.273,10.44-23.273,23.273C46.545,455.014,56.986,465.455,69.818,465.455z"/>
<path style="fill:#57565C;" d="M0,442.182C0,480.68,31.32,512,69.818,512s69.818-31.32,69.818-69.818
	c0-30.34-19.458-56.208-46.545-65.815c-7.284-2.583-15.115-4.003-23.273-4.003s-15.988,1.42-23.273,4.003
	C19.458,385.974,0,411.842,0,442.182z M69.818,418.909c12.833,0,23.273,10.44,23.273,23.273c0,12.833-10.44,23.273-23.273,23.273
	s-23.273-10.44-23.273-23.273C46.545,429.349,56.986,418.909,69.818,418.909z"/>
</svg>